<svg width="35" height="20" viewBox="0 0 35 20" fill="none" xmlns="http://www.w3.org/2000/svg">
<g clip-path="url(#clip0_41_2961)">
<path fill-rule="evenodd" clip-rule="evenodd" d="M12.6375 17.836H22.0049V2.13477H12.6375V17.836Z" fill="#FF5F00"/>
<path fill-rule="evenodd" clip-rule="evenodd" d="M13.2322 9.98559C13.2322 6.80019 14.8312 3.96317 17.3212 2.13497C15.5 0.797738 13.2025 0 10.7051 0C4.79283 0 0.000244141 4.47077 0.000244141 9.98559C0.000244141 15.5004 4.79283 19.9712 10.7051 19.9712C13.2025 19.9712 15.5 19.1734 17.3212 17.8362C14.8312 16.0077 13.2322 13.171 13.2322 9.98559Z" fill="#EB001B"/>
<path fill-rule="evenodd" clip-rule="evenodd" d="M34.3077 16.1733V15.7858H34.1992L34.0746 16.0524L33.9497 15.7858H33.8411V16.1733H33.9176V15.881L34.0347 16.1331H34.1141L34.2313 15.8804V16.1733H34.3077ZM33.6205 16.1733V15.8518H33.7597V15.7864H33.4058V15.8518H33.5447V16.1733H33.6205ZM34.642 9.98559C34.642 15.5004 29.8491 19.9712 23.9372 19.9712C21.4398 19.9712 19.1419 19.1734 17.321 17.8362C19.811 16.008 21.41 13.171 21.41 9.98559C21.41 6.80047 19.811 3.96345 17.321 2.13497C19.1419 0.797738 21.4398 0 23.9372 0C29.8491 0 34.642 4.47077 34.642 9.98559Z" fill="#F79E1B"/>
</g>
<defs>
<clipPath id="clip0_41_2961">
<rect width="35" height="20" fill="white"/>
</clipPath>
</defs>
</svg>
