<svg width="68" height="70" viewBox="0 0 68 70" fill="none" xmlns="http://www.w3.org/2000/svg">
<path d="M55.175 12.3084C67.9756 23.1909 69.1614 42.9454 57.6855 56.444C46.2096 69.9426 26.5218 71.9514 13.7212 61.0689C0.920524 50.1864 -0.265208 30.4319 11.2107 16.9333C22.6865 3.4347 42.3743 1.42592 55.175 12.3084Z" stroke="#1D3A70" stroke-width="2"/>
<path d="M11.5931 57.7443C0.294354 45.2736 1.40897 25.8148 14.1355 14.2841C26.8621 2.75349 46.3362 3.5585 57.635 16.0292C68.9338 28.5 67.8192 47.9588 55.0926 59.4894C42.366 71.0199 22.8919 70.215 11.5931 57.7443Z" stroke="#1D3A70" stroke-width="2"/>
<path d="M22 36L28.723 44.964C29.2121 45.6162 29.9798 46 30.795 46C31.559 46 32.284 45.6627 32.7762 45.0783L48 27" stroke="#1D3A70" stroke-width="3" stroke-linecap="round"/>
</svg>

