<svg width="24" height="24" viewBox="0 0 24 24" fill="none" xmlns="http://www.w3.org/2000/svg">
<path d="M12 24C13.1016 24 14.1641 23.8594 15.1875 23.5781C16.2109 23.2969 17.168 22.8945 18.0586 22.3711C18.9492 21.8477 19.7578 21.2227 20.4844 20.4961C21.2109 19.7695 21.8359 18.957 22.3594 18.0586C22.8828 17.1602 23.2852 16.2031 23.5664 15.1875C23.8477 14.1719 23.9922 13.1094 24 12C24 10.8984 23.8594 9.83594 23.5781 8.8125C23.2969 7.78906 22.8945 6.83203 22.3711 5.94141C21.8477 5.05078 21.2227 4.24219 20.4961 3.51562C19.7695 2.78906 18.957 2.16406 18.0586 1.64062C17.1602 1.11719 16.2031 0.714844 15.1875 0.433594C14.1719 0.152344 13.1094 0.0078125 12 0C10.8984 0 9.83594 0.140625 8.8125 0.421875C7.78906 0.703125 6.83203 1.10547 5.94141 1.62891C5.05078 2.15234 4.24219 2.77734 3.51562 3.50391C2.78906 4.23047 2.16406 5.04297 1.64062 5.94141C1.11719 6.83984 0.714844 7.79297 0.433594 8.80078C0.152344 9.80859 0.0078125 10.875 0 12C0 13.1016 0.140625 14.1641 0.421875 15.1875C0.703125 16.2109 1.10547 17.168 1.62891 18.0586C2.15234 18.9492 2.77734 19.7578 3.50391 20.4844C4.23047 21.2109 5.04297 21.8359 5.94141 22.3594C6.83984 22.8828 7.79297 23.2852 8.80078 23.5664C9.80859 23.8477 10.875 23.9922 12 24ZM12 1.5C12.9609 1.5 13.8867 1.625 14.7773 1.875C15.668 2.125 16.5039 2.47656 17.2852 2.92969C18.0664 3.38281 18.7773 3.93359 19.418 4.58203C20.0586 5.23047 20.6055 5.9375 21.0586 6.70312C21.5117 7.46875 21.8672 8.30469 22.125 9.21094C22.3828 10.1172 22.5078 11.0469 22.5 12C22.5 12.9609 22.375 13.8867 22.125 14.7773C21.875 15.668 21.5234 16.5039 21.0703 17.2852C20.6172 18.0664 20.0664 18.7773 19.418 19.418C18.7695 20.0586 18.0625 20.6055 17.2969 21.0586C16.5312 21.5117 15.6953 21.8672 14.7891 22.125C13.8828 22.3828 12.9531 22.5078 12 22.5C11.0391 22.5 10.1133 22.375 9.22266 22.125C8.33203 21.875 7.49609 21.5234 6.71484 21.0703C5.93359 20.6172 5.22266 20.0664 4.58203 19.418C3.94141 18.7695 3.39453 18.0625 2.94141 17.2969C2.48828 16.5312 2.13281 15.6953 1.875 14.7891C1.61719 13.8828 1.49219 12.9531 1.5 12C1.5 11.0391 1.625 10.1133 1.875 9.22266C2.125 8.33203 2.47656 7.49609 2.92969 6.71484C3.38281 5.93359 3.93359 5.22266 4.58203 4.58203C5.23047 3.94141 5.9375 3.39453 6.70312 2.94141C7.46875 2.48828 8.30469 2.13281 9.21094 1.875C10.1172 1.61719 11.0469 1.49219 12 1.5ZM18.2227 13.2773L19.2773 12.2227L12.0117 4.93359L4.72266 12.2227L5.77734 13.2773L11.2617 7.80469L11.25 19.5H12.75L12.7617 7.81641L18.2227 13.2773Z" fill="#00CB6A"/>
</svg>
